<svg width="274" height="233" viewBox="0 0 274 233" fill="none" xmlns="http://www.w3.org/2000/svg">
<path d="M242.936 206.376L214.993 138.042L211.441 131.227C199.162 107.671 166.308 105.458 150.981 127.155L146.407 133.63C137.624 146.063 120.425 149.022 107.991 140.239C92.2049 129.088 92.4998 105.574 108.561 94.8219L120.752 86.6606C148.674 67.9674 139.985 24.8358 107.003 18.4124L23.8584 2.22013C7.81217 -0.904855 -2.39243 -16.7753 1.42336 -32.6715C5.16821 -48.2721 20.9687 -57.7789 36.5062 -53.7799L124.687 -31.0842C156.959 -22.7784 189.795 -42.4459 197.702 -74.817L203.745 -99.5544C208.106 -117.407 225.935 -128.502 243.878 -124.529C260.692 -120.805 272.017 -105.033 270.17 -87.9111L267.475 -62.9293C262.837 -19.9433 302.603 14.4184 344.462 3.59635L387.198 -7.45255C405.243 -12.1178 424.02 -3.07706 431.626 13.9386C441.896 36.9141 427.525 63.369 402.661 67.2587L367.248 72.7985C328.605 78.8438 303.804 117.147 314.101 154.88L320.928 179.899C324.172 191.786 321.933 204.501 314.823 214.565C296.03 241.17 255.265 236.526 242.936 206.376Z" fill="#F6D58D"/>
</svg>
